#!OML:ASF I:\Actors\actors\Patient Classification 1\Patient 1\Session 1\Subject1.ASF
:FULLY-SPECIFIED
:DEGREES
551
root -0.253637 17.5694 7.76549 6.65906 -2.41938 -7.1939
lowerback 4.90843 2.13377 3.81539
upperback -7.38475 3.37851 1.16261
thorax -10.4909 1.39459 -1.35324
lowerneck -11.1359 -6.62851 -2.64738
upperneck 23.6814 -10.5193 6.74023
head 9.85348 -4.41236 1.51791
rclavicle -1.6847e-014 -1.78906e-014
rhumerus -19.8366 32.8561 -80.8114
rradius 79.1194
rwrist 11.94
rhand -5.33799 -50.1851
rfingers 7.12502
rthumb 20.4686 -1519.13
lclavicle -1.6847e-014 -1.78906e-014
lhumerus -33.1496 -33.7442 105.53
lradius 90.551
lwrist 4.84256
lhand -38.132 -8.03495
lfingers 7.12502
lthumb -11.1666 21.6479
rfemur -0.582364 23.9233 24.6697
rtibia 2.41019
rfoot -11.5046 -21.3879
rtoes -2.04693
lfemur 7.88486 -38.4431 -17.2229
ltibia -3.58606
lfoot -16.0447 47.9279
ltoes 8.60248
552
root -0.259384 17.5781 7.77006 6.89774 -2.33843 -7.23368
lowerback 4.75271 2.21193 3.84103
upperback -7.38201 3.48045 1.18609
thorax -10.3893 1.44623 -1.3486
lowerneck -11.3416 -6.75117 -3.03048
upperneck 23.5116 -10.6749 7.05268
head 9.88238 -4.48226 1.6607
rclavicle 2.36057e-014 -1.47101e-014
rhumerus -20.4875 30.6529 -81.698
rradius 84.7641
rwrist 9.66
rhand -6.08546 -43.8401
rfingers 7.12502
rthumb 19.7502 -1512.86
lclavicle 2.36057e-014 -1.47101e-014
lhumerus -33.1409 -33.353 105.399
lradius 90.7584
lwrist 4.50757
lhand -38.2712 -8.04747
lfingers 7.12502
lthumb -11.3008 21.6281
rfemur -0.745118 24.1957 24.6723
rtibia 2.28681
rfoot -11.4844 -21.6661
rtoes -1.8053
lfemur 7.59438 -38.5908 -16.9681
ltibia -3.61802
lfoot -16.0682 48.016
ltoes 8.64595
553
root -0.263464 17.5873 7.77926 7.20017 -1.93559 -7.32367
lowerback 4.63635 2.13372 4.00397
upperback -7.52111 3.39625 1.24435
thorax -10.4756 1.39237 -1.36346
lowerneck -11.2896 -6.76802 -2.84339
upperneck 23.3663 -10.6199 6.65184
head 9.78108 -4.4901 1.50209
rclavicle 1.78906e-015 1.19271e-015
rhumerus -23.3993 32.4212 -85.1797
rradius 90.3614
rwrist 12.1072
rhand -5.71733 -41.5969
rfingers 7.12502
rthumb 20.1041 -1510.58
lclavicle 1.78906e-015 1.19271e-015
lhumerus -33.4706 -32.5644 105.4
lradius 90.988
lwrist 4.79184
lhand -38.2236 -7.55424
lfingers 7.12502
lthumb -11.2549 22.1238
rfemur -0.870931 24.4372 24.7366
rtibia 2.03898
rfoot -11.538 -22.2261
rtoes -1.32803
lfemur 7.06822 -38.7705 -16.4791
ltibia -3.62323
lfoot -15.7932 47.8931
ltoes 8.39327
554
root -0.261699 17.5915 7.78861 7.4263 -1.27431 -7.52613
lowerback 4.88824 1.94559 4.42057
upperback -7.85376 3.21877 1.28123
thorax -10.998 1.25725 -1.54898
lowerneck -11.1703 -6.77625 -2.53974
upperneck 23.5138 -10.5595 6.06693
head 9.75339 -4.49874 1.26396
rclavicle -5.91384e-015 4.77083e-015
rhumerus -24.1325 34.4941 -87.0892
rradius 94.261
rwrist 8.99309
rhand -6.52945 -41.4523
rfingers 7.12502
rthumb 19.3233 -1510.51
lclavicle -5.91384e-015 4.77083e-015
lhumerus -34.2088 -31.5413 105.563
lradius 91.1467
lwrist 5.36689
lhand -38.1443 -6.98607
lfingers 7.12502
lthumb -11.1784 22.6961
rfemur -0.863191 24.4076 24.9622
rtibia 1.749
rfoot -11.6756 -22.7755
rtoes -0.674733
lfemur 6.47686 -38.8099 -15.8157
ltibia -3.56251
lfoot -15.3323 47.4071
ltoes 7.8766
555
root -0.258121 17.5912 7.79469 7.45771 -0.623388 -7.99108
lowerback 4.57921 1.77318 5.16247
upperback -7.74342 3.04126 1.35263
thorax -10.6706 1.125 -1.84617
lowerneck -11.2542 -6.76493 -2.54626
upperneck 23.5752 -10.5605 6.12318
head 9.7953 -4.4891 1.28071
rclavicle 3.50855e-014 -8.34896e-015
rhumerus -23.9364 35.4792 -88.4775
rradius 96.2547
rwrist 7.33894
rhand -6.96909 -41.3754
rfingers 7.12502
rthumb 18.9006 -1510.48
lclavicle 3.50855e-014 -8.34896e-015
lhumerus -34.1674 -30.7185 105.3
lradius 91.0137
lwrist 5.87956
lhand -38.354 -7.08347
lfingers 7.12502
lthumb -11.3807 22.5877
rfemur -0.696097 24.1919 25.576
rtibia 1.58387
rfoot -11.8789 -23.1049
rtoes -0.0619567
lfemur 6.14707 -38.6466 -14.9918
ltibia -3.53787
lfoot -14.8149 46.7408
ltoes 7.19316
556
root -0.262748 17.5932 7.80017 7.43954 -0.296666 -8.18565
lowerback 4.43482 1.662 5.40297
upperback -7.72122 2.90221 1.34509
thorax -10.5587 1.04164 -1.96398
lowerneck -11.3725 -6.70646 -2.5631
upperneck 23.8492 -10.558 6.35005
head 9.93138 -4.4527 1.35581
rclavicle 2.98177e-015 2.66371e-014
rhumerus -23.7675 36.4888 -89.9011
rradius 95.6263
rwrist 8.96549
rhand -6.60224 -42.3938
rfingers 7.12502
rthumb 19.2533 -1511.46
lclavicle 2.98177e-015 2.66371e-014
lhumerus -34.2506 -29.9158 105.024
lradius 90.817
lwrist 6.1384
lhand -38.5557 -7.38434
lfingers 7.12502
lthumb -11.5753 22.276
rfemur -0.614793 24.2947 25.886
rtibia 1.58205
rfoot -12.0941 -23.4482
rtoes 0.528715
lfemur 5.96103 -38.4666 -14.5544
ltibia -3.51907
lfoot -14.4907 46.3069
ltoes 6.74374
557
root -0.275258 17.5989 7.80166 7.46887 -0.1949 -7.90827
lowerback 4.38597 1.60731 4.9098
upperback -7.78309 2.77076 1.24219
thorax -10.619 1.01025 -1.78249
lowerneck -11.408 -6.65065 -2.42735
upperneck 24.0604 -10.552 6.43974
head 10.0122 -4.42053 1.36323
rclavicle -2.3059e-014 2.26615e-014
rhumerus -23.2739 37.4504 -90.7624
rradius 92.4176
rwrist 12.8025
rhand -5.44019 -44.1493
rfingers 7.12502
rthumb 20.3704 -1513.1
lclavicle -2.3059e-014 2.26615e-014
lhumerus -34.2851 -29.3187 104.781
lradius 90.5945
lwrist 6.00434
lhand -38.6185 -7.1293
lfingers 7.12502
lthumb -11.6358 22.5276
rfemur -0.692771 24.6686 25.6093
rtibia 1.65257
rfoot -12.2308 -23.906
rtoes 0.97501
lfemur 5.66882 -38.2639 -14.6003
ltibia -3.41761
lfoot -14.3067 46.0125
ltoes 6.38022
558
root -0.283639 17.6 7.79668 7.36732 -0.177818 -7.74343
lowerback 4.55341 1.6418 4.54376
upperback -7.84083 2.78854 1.16753
thorax -10.7932 1.03947 -1.66829
lowerneck -11.3323 -6.65985 -2.38541
upperneck 24.1646 -10.6229 6.58509
head 10.0462 -4.43211 1.3997
rclavicle 2.08724e-014 4.73108e-014
rhumerus -22.6829 38.4099 -91.1157
rradius 88.6962
rwrist 15.0506
rhand -4.39043 -45.7833
rfingers 7.12502
rthumb 21.379 -1514.62
lclavicle 2.08724e-014 4.73108e-014
lhumerus -34.2045 -29.1755 104.678
lradius 90.2896
lwrist 5.58195
lhand -38.6869 -6.69917
lfingers 7.12502
lthumb -11.7017 22.954
rfemur -0.664599 24.7316 25.483
rtibia 1.76432
rfoot -12.254 -24.002
rtoes 1.00201
lfemur 5.64484 -38.0551 -14.7278
ltibia -3.34898
lfoot -14.1403 45.8237
ltoes 5.91427
559
root -0.285309 17.5942 7.7961 7.06698 -0.339049 -7.69056
lowerback 4.71802 1.78982 4.37229
upperback -7.78284 2.97316 1.10315
thorax -10.8191 1.13952 -1.67191
lowerneck -11.1837 -6.70563 -2.51344
upperneck 24.1752 -10.7503 6.92069
head 10.0578 -4.46866 1.52532
rclavicle 1.63997e-015 3.1408e-014
rhumerus -21.745 39.0776 -90.9165
rradius 84.5622
rwrist 16.4035
rhand -3.4315 -47.4653
rfingers 7.12502
rthumb 22.2998 -1516.2
lclavicle 1.63997e-015 3.1408e-014
lhumerus -34.0055 -29.4175 104.62
lradius 89.9717
lwrist 5.24011
lhand -38.7084 -6.55825
lfingers 7.12502
lthumb -11.7224 23.0938
rfemur -0.365626 24.4283 25.5391
rtibia 1.85683
rfoot -12.1973 -23.5762
rtoes 0.618045
lfemur 6.32531 -38.3322 -15.3012
ltibia -3.41215
lfoot -14.3087 46.2583
ltoes 5.82927
560
root -0.282079 17.5846 7.80125 6.72212 -0.539062 -7.4846
lowerback 4.75246 1.92713 4.0802
upperback -7.64787 3.11821 1.02688
thorax -10.6861 1.23461 -1.60953
lowerneck -11.0795 -6.72876 -2.66092
upperneck 24.1809 -10.8342 7.23055
head 10.0736 -4.48874 1.64947
rclavicle 1.3418e-015 -1.63003e-014
rhumerus -20.1897 39.37 -90.2562
rradius 81.8884
rwrist 14.1199
rhand -3.58014 -47.9017
rfingers 7.12502
rthumb 22.1571 -1516.65
lclavicle 1.3418e-015 -1.63003e-014
lhumerus -33.7026 -29.7394 104.493
lradius 89.6937
lwrist 5.07741
lhand -38.7607 -6.79192
lfingers 7.12502
lthumb -11.7729 22.8572
rfemur 0.050217 24.0092 25.4067
rtibia 1.86035
rfoot -12.1285 -23.015
rtoes 0.329386
lfemur 7.30961 -39.0529 -16.3721
ltibia -3.49033
lfoot -14.739 47.1205
ltoes 6.14362
561
root -0.28077 17.5771 7.79793 6.5149 -0.610296 -7.39549
lowerback 4.84096 2.02047 3.8686
upperback -7.59241 3.22382 1.00581
thorax -10.6794 1.30248 -1.53129
lowerneck -11.2256 -6.76356 -2.82236
upperneck 24.4639 -10.9354 7.44594
head 10.2343 -4.51141 1.73172
rclavicle 2.23633e-015 -1.86858e-014
rhumerus -18.1227 38.062 -89.0641
rradius 81.2236
rwrist 5.62786
rhand -5.67244 -46.5875
rfingers 7.12502
rthumb 20.1472 -1515.56
lclavicle 2.23633e-015 -1.86858e-014
lhumerus -33.4503 -30.068 104.397
lradius 89.5135
lwrist 5.06364
lhand -38.7454 -7.11478
lfingers 7.12502
lthumb -11.7581 22.5352
rfemur 0.225606 23.7748 25.346
rtibia 1.93092
rfoot -12.1467 -22.7204
rtoes 0.455688
lfemur 7.74471 -39.3076 -16.8403
ltibia -3.49712
lfoot -14.8027 47.456
ltoes 6.18434
